<?xml version="1.0" standalone="no"?>
<!DOCTYPE svg PUBLIC "-//W3C//DTD SVG 20010904//EN"
 "http://www.w3.org/TR/2001/REC-SVG-20010904/DTD/svg10.dtd">
<svg version="1.0" xmlns="http://www.w3.org/2000/svg"
 width="511.000000pt" height="488.000000pt" viewBox="0 0 511.000000 488.000000"
 preserveAspectRatio="xMidYMid meet">

<g transform="translate(0.000000,488.000000) scale(0.100000,-0.100000)"
fill="#000000" stroke="none">
<path d="M2333 4240 c-104 -9 -321 -56 -428 -93 -109 -37 -339 -162 -435 -236
-166 -127 -362 -334 -428 -452 -13 -24 -39 -69 -57 -99 -57 -95 -82 -152 -124
-281 -71 -213 -83 -286 -88 -530 -4 -191 -2 -230 16 -325 40 -209 124 -441
205 -568 18 -29 41 -68 50 -88 9 -19 25 -44 34 -54 9 -11 40 -48 67 -82 75
-96 222 -235 337 -321 113 -84 355 -210 453 -237 239 -65 319 -79 495 -89 271
-16 624 59 845 180 33 18 80 43 105 56 129 66 361 268 482 420 61 76 185 277
208 336 10 26 32 83 49 126 81 204 111 370 111 610 0 272 -38 453 -147 707 -8
19 -21 51 -30 70 -8 19 -44 82 -81 140 -236 375 -604 649 -1012 755 -58 15
-139 33 -180 40 -101 18 -322 25 -447 15z m1187 -1732 l0 -1013 -1012 3 c-556
1 -1013 4 -1015 5 -1 2 -5 456 -9 1010 l-6 1007 1021 0 1021 0 0 -1012z"/>
<path d="M1757 3243 c-10 -10 -8 -1471 1 -1477 14 -8 1477 -10 1490 -2 14 8
16 369 5 1049 l-6 437 -742 0 c-408 0 -745 -3 -748 -7z"/>
</g>
</svg>
