<?xml version="1.0" standalone="no"?>
<!DOCTYPE svg PUBLIC "-//W3C//DTD SVG 20010904//EN"
 "http://www.w3.org/TR/2001/REC-SVG-20010904/DTD/svg10.dtd">
<svg version="1.0" xmlns="http://www.w3.org/2000/svg"
 width="507.000000pt" height="492.000000pt" viewBox="0 0 507.000000 492.000000"
 preserveAspectRatio="xMidYMid meet">

<g transform="translate(0.000000,492.000000) scale(0.100000,-0.100000)"
fill="#000000" stroke="none">
<path d="M2340 4213 c-217 -22 -428 -81 -605 -170 -432 -217 -739 -566 -894
-1017 -111 -322 -113 -787 -5 -1114 57 -171 200 -435 301 -554 266 -313 596
-520 960 -602 302 -68 626 -59 928 27 230 65 541 254 715 434 121 125 220 241
220 257 0 3 18 35 40 71 108 177 192 389 232 588 20 96 23 142 23 332 0 188
-4 237 -23 332 -72 360 -261 700 -533 959 -161 152 -469 333 -656 383 -106 29
-229 54 -323 67 -95 12 -291 16 -380 7z m176 -514 c13 -27 51 -93 83 -147 32
-53 76 -133 98 -177 22 -44 65 -120 95 -170 30 -49 74 -126 98 -170 24 -44 51
-91 61 -105 9 -14 45 -79 79 -145 34 -66 75 -139 90 -161 15 -23 45 -72 65
-110 21 -38 62 -110 92 -161 29 -50 53 -94 53 -97 0 -6 47 -89 223 -391 38
-66 78 -139 88 -162 l18 -43 -1190 0 -1190 0 24 32 c25 35 76 125 137 243 20
39 76 138 125 220 83 140 108 184 218 383 24 42 88 154 142 247 54 94 114 199
133 235 56 107 93 172 128 227 19 28 34 53 34 56 0 2 30 56 67 118 36 63 88
156 115 207 80 153 74 149 114 71z"/>
<path d="M2452 3223 c-11 -16 -36 -62 -57 -103 -39 -78 -176 -322 -277 -494
-32 -55 -58 -103 -58 -107 0 -6 -43 -84 -208 -374 -118 -208 -136 -245 -124
-257 11 -11 1496 -8 1507 3 6 6 -30 77 -65 129 -9 14 -54 95 -100 180 -46 85
-133 243 -193 350 -61 107 -138 247 -172 310 -129 242 -215 390 -226 390 -4 0
-16 -12 -27 -27z"/>
</g>
</svg>
