<?xml version="1.0" standalone="no"?>
<!DOCTYPE svg PUBLIC "-//W3C//DTD SVG 20010904//EN"
 "http://www.w3.org/TR/2001/REC-SVG-20010904/DTD/svg10.dtd">
<svg version="1.0" xmlns="http://www.w3.org/2000/svg"
 width="493.000000pt" height="506.000000pt" viewBox="0 0 493.000000 506.000000"
 preserveAspectRatio="xMidYMid meet">

<g transform="translate(0.000000,506.000000) scale(0.100000,-0.100000)"
fill="#000000" stroke="none">
<path d="M2270 4389 c-99 -8 -177 -22 -270 -46 -30 -8 -68 -18 -85 -23 -71
-18 -231 -81 -290 -112 -11 -6 -45 -25 -75 -41 -55 -30 -171 -105 -180 -117
-3 -3 -21 -17 -40 -30 -89 -62 -269 -242 -330 -330 -13 -19 -27 -37 -30 -40
-21 -17 -84 -121 -152 -250 -62 -117 -121 -282 -146 -405 -6 -27 -16 -79 -24
-115 -18 -89 -18 -511 0 -600 31 -150 70 -291 101 -365 54 -128 156 -320 188
-353 7 -7 13 -17 13 -22 0 -5 6 -15 13 -22 6 -7 25 -31 42 -53 75 -102 299
-310 421 -393 83 -55 281 -161 329 -174 11 -4 47 -16 80 -28 77 -29 93 -33
280 -76 103 -23 519 -27 630 -5 123 24 282 68 363 102 12 5 32 13 45 18 99 38
357 185 387 221 3 3 25 21 50 40 139 107 344 347 427 500 17 30 39 71 50 90
10 19 27 55 37 80 10 25 24 59 31 75 33 74 73 219 107 385 17 87 17 470 -1
565 -23 122 -42 197 -78 305 -35 107 -128 312 -144 318 -5 2 -9 8 -9 13 0 15
-112 178 -161 234 -69 79 -229 237 -279 275 -25 19 -47 37 -50 40 -3 3 -27 20
-55 38 -27 17 -55 35 -61 39 -82 61 -378 186 -504 213 -19 4 -69 15 -110 24
-151 32 -335 41 -520 25z m350 -654 c151 -25 211 -43 327 -96 112 -51 202
-110 275 -180 21 -20 38 -34 38 -31 0 4 12 -7 28 -24 15 -17 41 -46 57 -65 17
-19 42 -50 55 -69 14 -19 27 -37 30 -40 12 -12 55 -95 93 -180 30 -68 59 -161
53 -175 -2 -8 -1 -15 4 -17 27 -10 34 -504 7 -536 -6 -8 -10 -25 -9 -37 2 -13
-2 -26 -9 -31 -8 -5 -9 -3 -4 6 5 8 4 11 -3 6 -6 -4 -8 -14 -5 -23 4 -11 3
-14 -5 -9 -8 5 -12 -1 -12 -18 0 -14 5 -26 10 -26 6 0 10 -4 10 -10 0 -12 -26
-14 -33 -2 -2 4 -2 1 0 -5 1 -7 5 -19 6 -25 2 -7 2 -10 0 -5 -9 15 -21 6 -26
-20 -3 -16 0 -31 6 -35 8 -5 6 -12 -5 -25 -9 -10 -17 -22 -17 -28 -2 -22 -13
-45 -22 -45 -5 0 -9 -5 -9 -11 0 -10 -56 -98 -70 -109 -3 -3 -21 -25 -40 -50
-57 -74 -98 -111 -224 -205 -90 -67 -267 -148 -376 -173 -25 -6 -67 -16 -94
-23 -65 -16 -344 -17 -416 0 -141 31 -194 49 -305 102 -227 108 -421 294 -530
509 -39 77 -76 180 -70 191 4 5 2 9 -4 9 -18 0 -46 144 -57 297 -8 102 6 230
38 353 27 107 28 111 38 105 5 -3 12 0 16 6 4 8 3 9 -4 5 -7 -4 -12 -1 -12 7
0 21 30 77 41 77 6 0 7 5 3 11 -4 7 4 20 17 31 13 11 18 17 12 13 -17 -8 -16
1 3 30 9 14 21 22 27 18 6 -4 7 -1 3 6 -21 34 183 260 314 348 108 72 253 143
305 148 6 0 19 6 31 12 19 11 141 38 209 46 72 9 227 5 305 -8z"/>
<path d="M2345 3454 c-141 -15 -315 -87 -440 -184 -79 -61 -235 -246 -235
-278 0 -5 -7 -15 -15 -22 -8 -6 -14 -15 -13 -18 1 -4 -5 -23 -15 -42 -23 -48
-47 -141 -59 -225 -11 -77 -5 -248 10 -286 6 -13 15 -44 22 -69 23 -85 59
-162 113 -244 44 -65 152 -179 207 -216 19 -13 37 -27 40 -30 17 -18 161 -89
182 -90 9 0 19 -4 22 -9 3 -5 18 -11 33 -14 16 -3 62 -13 103 -21 87 -18 210
-21 278 -5 156 35 151 33 220 68 24 11 50 21 58 21 8 0 14 5 14 11 0 6 7 8 17
5 10 -4 14 -4 10 0 -3 4 15 20 41 37 59 37 182 156 230 222 20 28 39 52 42 55
3 3 6 12 8 20 2 8 8 17 13 18 5 2 9 12 9 22 0 18 23 44 32 35 2 -3 5 2 5 10 0
8 -4 12 -9 9 -4 -3 -5 2 -2 10 3 9 10 16 16 16 5 0 6 5 2 12 -4 6 -1 16 7 22
8 6 15 25 16 41 1 17 9 76 17 133 15 100 17 222 5 222 -7 0 -17 58 -22 123 -1
15 -5 27 -9 27 -7 0 -33 79 -30 93 1 4 -2 7 -7 7 -5 0 -13 10 -17 22 -16 53
-105 170 -194 257 -30 29 -54 58 -52 63 1 5 -2 7 -8 3 -5 -3 -25 5 -43 19 -19
15 -39 26 -45 26 -6 0 -12 3 -14 8 -1 4 -25 18 -53 31 -27 13 -58 27 -67 32
-73 37 -299 66 -423 53z"/>
<path d="M3291 2874 c0 -11 3 -14 6 -6 3 7 2 16 -1 19 -3 4 -6 -2 -5 -13z"/>
<path d="M3251 2184 c0 -11 3 -14 6 -6 3 7 2 16 -1 19 -3 4 -6 -2 -5 -13z"/>
<path d="M3470 2090 c-11 -7 -11 -10 -2 -10 10 0 10 -5 2 -20 -6 -11 -15 -18
-19 -16 -4 3 -8 -1 -8 -9 0 -8 5 -13 11 -12 6 1 10 -4 8 -11 -1 -8 2 -11 8 -7
8 5 7 12 -2 23 -11 14 -10 15 7 8 11 -4 16 -4 13 0 -4 4 -3 15 3 25 7 13 6 19
-1 19 -6 0 -8 5 -5 10 8 12 4 12 -15 0z"/>
<path d="M3400 1930 c-9 -6 -10 -10 -3 -10 6 0 15 5 18 10 8 12 4 12 -15 0z"/>
<path d="M3126 1653 c-6 -14 -5 -15 5 -6 7 7 10 15 7 18 -3 3 -9 -2 -12 -12z"/>
</g>
</svg>
