<?xml version="1.0" standalone="no"?>
<!DOCTYPE svg PUBLIC "-//W3C//DTD SVG 20010904//EN"
 "http://www.w3.org/TR/2001/REC-SVG-20010904/DTD/svg10.dtd">
<svg version="1.0" xmlns="http://www.w3.org/2000/svg"
 width="497.000000pt" height="502.000000pt" viewBox="0 0 497.000000 502.000000"
 preserveAspectRatio="xMidYMid meet">

<g transform="translate(0.000000,502.000000) scale(0.100000,-0.100000)"
fill="#000000" stroke="none">
<path d="M2405 4293 c-155 -5 -391 -49 -500 -93 -11 -4 -36 -13 -55 -20 -103
-36 -264 -118 -374 -192 -50 -34 -93 -64 -96 -67 -3 -4 -30 -26 -60 -51 -75
-61 -182 -173 -250 -260 -19 -25 -37 -47 -40 -50 -15 -15 -70 -100 -70 -109 0
-6 -4 -11 -8 -11 -4 0 -19 -22 -33 -50 -13 -27 -27 -50 -31 -50 -5 0 -8 -6 -8
-13 0 -7 -20 -53 -45 -102 -24 -50 -45 -96 -45 -103 0 -7 -4 -20 -9 -30 -21
-38 -62 -192 -80 -302 -26 -161 -34 -301 -22 -428 25 -273 73 -453 179 -667
54 -108 168 -296 192 -315 3 -3 33 -39 67 -80 107 -132 263 -266 425 -363 43
-26 82 -47 87 -47 5 0 11 -3 13 -7 3 -8 51 -32 140 -72 46 -20 209 -74 278
-91 253 -63 541 -67 810 -10 165 34 286 77 444 156 75 38 260 154 276 173 3 3
23 20 45 36 101 75 262 254 365 405 60 89 161 283 185 356 9 27 20 58 24 69
25 57 53 177 82 338 14 84 15 406 0 479 -5 29 -15 82 -21 118 -7 36 -15 76
-20 90 -4 14 -13 45 -20 70 -48 175 -213 490 -317 605 -10 11 -30 36 -44 55
-94 124 -299 296 -465 391 -236 134 -503 219 -739 234 -159 10 -189 11 -260 8z
m-333 -1198 c223 -224 411 -405 420 -405 10 0 198 180 423 405 223 223 411
405 418 405 7 0 53 -40 101 -90 79 -80 87 -92 75 -107 -7 -10 -192 -196 -411
-413 -219 -218 -398 -402 -398 -409 0 -8 185 -197 411 -421 363 -358 410 -409
401 -426 -16 -30 -168 -174 -183 -174 -8 0 -196 182 -418 405 -225 225 -412
405 -422 405 -9 0 -50 -34 -91 -76 -213 -220 -739 -744 -746 -744 -10 0 -172
162 -184 185 -6 10 87 108 358 377 454 450 454 449 454 468 0 8 -185 198 -411
423 l-411 408 18 22 c55 67 161 167 176 167 10 0 197 -181 420 -405z"/>
</g>
</svg>
